<svg width="12" height="12" viewBox="0 0 12 12" fill="none" xmlns="http://www.w3.org/2000/svg">
	<path fill-rule="evenodd" clip-rule="evenodd" d="M1.125 6C1.125 3.3075 3.3075 1.125 6 1.125C8.6925 1.125 10.875 3.3075 10.875 6C10.875 8.6925 8.6925 10.875 6 10.875C3.3075 10.875 1.125 8.6925 1.125 6ZM7.805 5.093C7.835 5.05303 7.85671 5.00746 7.86884 4.95897C7.88098 4.91049 7.8833 4.86007 7.87568 4.81068C7.86805 4.76128 7.85062 4.71391 7.82443 4.67135C7.79823 4.62879 7.76379 4.59189 7.72313 4.56283C7.68247 4.53376 7.63641 4.51312 7.58765 4.50211C7.5389 4.49111 7.48844 4.48996 7.43924 4.49873C7.39004 4.5075 7.34308 4.52603 7.30114 4.55321C7.2592 4.58038 7.22311 4.61567 7.195 4.657L5.577 6.922L4.765 6.11C4.69391 6.04376 4.59989 6.0077 4.50274 6.00941C4.40559 6.01113 4.3129 6.05048 4.24419 6.11919C4.17548 6.1879 4.13613 6.28059 4.13441 6.37774C4.1327 6.47489 4.16876 6.56891 4.235 6.64L5.36 7.765C5.39849 7.80347 5.4449 7.83309 5.49599 7.85182C5.54709 7.87055 5.60165 7.87794 5.65588 7.87347C5.71012 7.86899 5.76273 7.85277 5.81006 7.82593C5.8574 7.79908 5.89833 7.76225 5.93 7.718L7.805 5.093Z" fill="#1E2939" />
	<circle cx="6" cy="6" r="4.5" fill="#F3F4F6" stroke="#D1D5DC" />
</svg>
