<svg width="10" height="10" viewBox="0 0 10 10" fill="none" xmlns="http://www.w3.org/2000/svg">
	<g clip-path="url(#clip0_233_1690)">
		<path d="M9.0509 5.31324C9.10739 4.59573 8.97147 3.87613 8.65715 3.22866C8.13688 3.72299 7.52188 4.10682 6.84924 4.35699C6.90332 5.02088 6.87336 5.68894 6.76007 6.34533C7.5786 6.13918 8.35418 5.78976 9.0509 5.31324ZM6.09799 6.47908C6.23107 5.84283 6.2776 5.19153 6.23632 4.54283C5.83965 4.63741 5.4259 4.68741 5.00049 4.68741C4.57507 4.68741 4.16132 4.63741 3.76465 4.54283C3.72434 5.19152 3.77086 5.8427 3.90299 6.47908C4.6304 6.59057 5.37057 6.59057 6.09799 6.47908ZM4.07215 7.13283C4.68889 7.20579 5.31208 7.20579 5.92882 7.13283C5.71685 7.81515 5.40394 8.4619 5.00049 9.05158C4.59702 8.46191 4.2841 7.81515 4.07215 7.13283ZM3.2409 6.34574C3.127 5.68914 3.09704 5.02073 3.15174 4.35658C2.47894 4.10646 1.86378 3.72263 1.3434 3.22824C1.02916 3.87588 0.893378 4.59563 0.950068 5.31324C1.64679 5.78976 2.42237 6.13959 3.2409 6.34574ZM8.89882 6.14658C8.68845 6.85947 8.28681 7.50111 7.73751 8.00185C7.18822 8.5026 6.51225 8.8433 5.78299 8.98699C6.1482 8.37293 6.42694 7.71142 6.61132 7.02116C7.41527 6.85266 8.18738 6.5576 8.89882 6.14699V6.14658ZM1.10215 6.14658C1.80298 6.55116 2.57298 6.84991 3.38965 7.02116C3.57403 7.71142 3.85277 8.37293 4.21799 8.98699C3.48877 8.84334 2.81284 8.50269 2.26354 8.00203C1.71425 7.50136 1.31259 6.85981 1.10215 6.14699V6.14658ZM5.78299 1.01241C6.81537 1.21533 7.72885 1.81067 8.33132 2.67324C7.8866 3.12257 7.35571 3.47744 6.77048 3.71658C6.61281 2.7615 6.27788 1.84434 5.78299 1.01241ZM5.00049 0.948242C5.60857 1.83662 6.0081 2.85089 6.16924 3.91533C5.79549 4.01116 5.40382 4.06241 5.00049 4.06241C4.59715 4.06241 4.20549 4.01158 3.83173 3.91533C3.99285 2.85089 4.39238 1.83661 5.00049 0.948242ZM4.21799 1.01241C3.72308 1.84434 3.38815 2.7615 3.23048 3.71658C2.64526 3.47745 2.11436 3.12258 1.66965 2.67324C2.27217 1.8108 3.18565 1.21518 4.21799 1.01241Z" fill="#6A7282" />
	</g>
	<defs>
		<clipPath id="clip0_233_1690">
			<rect width="10" height="10" fill="white" />
		</clipPath>
	</defs>
</svg>
