<svg width="12" height="12" viewBox="0 0 12 12" fill="none" xmlns="http://www.w3.org/2000/svg">
	<path d="M10.3331 10.4004H1.67022C1.40565 10.4004 1.19055 10.6172 1.19055 10.8801V11.5202C1.19055 11.7848 1.40735 11.9998 1.67022 11.9998H10.3297C10.5943 11.9998 10.8093 11.783 10.8093 11.5202V10.8801C10.8145 10.6138 10.5977 10.4004 10.3331 10.4004Z" fill="white" />
	<path d="M5.66618 9.54196C5.76008 9.63586 5.88298 9.68365 6.00417 9.68365C6.12707 9.68365 6.24997 9.63586 6.34215 9.54196L9.62295 6.26117C9.80902 6.07512 9.80902 5.77128 9.62295 5.58179L9.16889 5.12774C8.98282 4.94167 8.67898 4.94167 8.48952 5.12774L6.80303 6.81594V0.47967C6.80303 0.215078 6.58623 0 6.32338 0H5.68325C5.41868 0 5.20358 0.21336 5.20358 0.47967V6.81764L3.5154 5.12943C3.32933 4.94339 3.02379 4.94339 2.83602 5.12943L2.38197 5.58349C2.19592 5.76954 2.19592 6.0751 2.38197 6.26286L5.66618 9.54196Z" fill="white" />
</svg>
