<svg width="20" height="20" viewBox="0 0 20 20" fill="none" xmlns="http://www.w3.org/2000/svg">
	<path d="M1.66669 4.16666C1.66669 3.70643 2.03979 3.33333 2.50002 3.33333H13.3334C13.7936 3.33333 14.1667 3.70643 14.1667 4.16666C14.1667 4.62689 13.7936 4.99999 13.3334 4.99999H2.50002C2.03979 4.99999 1.66669 4.62689 1.66669 4.16666Z" fill="#6A7282" />
	<path d="M1.66669 9.99999C1.66669 9.53974 2.03979 9.16666 2.50002 9.16666H17.5C17.9603 9.16666 18.3334 9.53974 18.3334 9.99999C18.3334 10.4602 17.9603 10.8333 17.5 10.8333H2.50002C2.03979 10.8333 1.66669 10.4602 1.66669 9.99999Z" fill="#6A7282" />
	<path d="M2.50002 15C2.03979 15 1.66669 15.3731 1.66669 15.8333C1.66669 16.2936 2.03979 16.6667 2.50002 16.6667H9.16669C9.62694 16.6667 10 16.2936 10 15.8333C10 15.3731 9.62694 15 9.16669 15H2.50002Z" fill="#6A7282" />
</svg>
