<svg width="12" height="12" viewBox="0 0 12 12" fill="none" xmlns="http://www.w3.org/2000/svg">
	<g clip-path="url(#clip0_239_5219)">
		<path fill-rule="evenodd" clip-rule="evenodd" d="M5.2299 8.25165C5.2461 8.25975 5.2704 8.25975 5.2704 8.25975V8.27595C5.2947 8.27595 5.34323 8.24355 5.34323 8.24355L6.21758 7.3692C6.22598 7.3608 6.2343 7.353 6.2424 7.34542C6.26565 7.32375 6.2865 7.30417 6.29857 7.28017C6.3147 7.24777 6.3228 7.21537 6.30667 7.18297C6.29048 7.15065 6.26617 7.11825 6.23378 7.11825C5.90182 7.04535 5.60227 6.88343 5.35942 6.64058C5.07607 6.36532 4.90605 6.00098 4.86555 5.5881C4.81703 5.0781 4.99515 4.57613 5.35942 4.21184L7.65053 1.92073C8.29822 1.27307 9.43162 1.27307 10.0792 1.92073C10.4031 2.25266 10.5812 2.68173 10.5812 3.1432C10.5812 3.60466 10.4031 4.04182 10.0792 4.36566L9.03495 5.40195C9.01065 5.42617 9.00255 5.46667 9.01065 5.49907C9.10777 5.84722 9.16447 6.2115 9.16447 6.57585C9.16447 6.7539 9.15637 6.90773 9.13207 7.03725C9.13207 7.07775 9.14827 7.12635 9.18877 7.14255C9.2292 7.16678 9.2778 7.15867 9.3102 7.12635L11.0831 5.36145C12.3056 4.13088 12.3056 2.13931 11.0831 0.916852C9.8607 -0.305618 7.86915 -0.305618 6.64665 0.916852L4.35555 3.20796C4.15315 3.41035 3.99124 3.62894 3.86981 3.84753C3.86711 3.85023 3.86351 3.85292 3.85991 3.85562C3.85271 3.86102 3.84552 3.86642 3.84552 3.87182C3.34358 4.77045 3.3031 5.85532 3.74836 6.7782C3.90219 7.09395 4.09648 7.3773 4.35555 7.63635C4.6065 7.8954 4.90605 8.10593 5.2299 8.25165ZM0.92292 11.0844C1.5382 11.6916 2.33968 11.9993 3.14117 11.9993L3.11688 12.0073C3.91837 12.0073 4.72792 11.6997 5.33512 11.0925L7.62622 8.8014C8.0472 8.38042 8.33865 7.86232 8.46817 7.28752L8.51678 6.93128C8.53297 6.85035 8.53298 6.76935 8.53298 6.68843V6.65602V6.58313V6.36458C8.53298 6.28358 8.52487 6.20265 8.50867 6.13785C8.50058 6.04882 8.48438 5.976 8.46817 5.9031C8.45205 5.82218 8.42775 5.73307 8.39535 5.63595C8.25772 5.17447 7.99867 4.7373 7.63433 4.373C7.39148 4.13013 7.09193 3.91963 6.76807 3.76582C6.73568 3.74153 6.65475 3.78201 6.65475 3.78201L5.7804 4.65637C5.7561 4.68068 5.7237 4.713 5.69948 4.7616C5.68328 4.7859 5.68328 4.8183 5.69948 4.85063C5.7156 4.88302 5.7399 4.90733 5.7723 4.90733C6.10425 4.97213 6.4038 5.13398 6.64665 5.3769C6.9705 5.70878 7.14863 6.14595 7.14053 6.62362C7.13243 6.91507 7.05953 7.19842 6.9219 7.44127C6.8895 7.49797 6.84907 7.56278 6.78428 7.6356C6.75187 7.6842 6.71145 7.74083 6.64665 7.80562L4.35554 10.0967C4.03171 10.4125 3.59453 10.5906 3.14117 10.5906C2.6878 10.5906 2.24254 10.4125 1.9268 10.0967C1.60297 9.76477 1.42486 9.3357 1.42486 8.8743C1.42486 8.41283 1.60297 7.97565 1.9268 7.6518L2.97116 6.60743C2.99545 6.57503 3.00354 6.5346 2.99545 6.5022C2.83353 6.00022 2.78495 5.49022 2.85782 4.98015C2.86592 4.93972 2.84162 4.89112 2.80115 4.87492C2.76876 4.85063 2.68781 4.89112 2.68781 4.89112L0.92292 6.64793C0.323835 7.23892 0 8.03228 0 8.8662C0 9.70005 0.331927 10.4934 0.92292 11.0844Z" fill="#62748E" />
	</g>
	<defs>
		<clipPath id="clip0_239_5219">
			<rect width="12" height="12" fill="white" />
		</clipPath>
	</defs>
</svg>
